<svg xmlns="http://www.w3.org/2000/svg" viewBox="0 0 96 96" fill="none">
  <rect width="96" height="96" rx="28" fill="url(#paint0_linear)" />
  <path
    d="M29 29.5C29 24.8066 32.8066 21 37.5 21H58.5C63.1934 21 67 24.8066 67 29.5V50.5C67 55.1934 63.1934 59 58.5 59H47.2452L35.8806 70.3646C34.9352 71.31 33.3158 70.6404 33.3158 69.3034V59H37.5C32.8066 59 29 55.1934 29 50.5V29.5Z"
    fill="white"
    fill-opacity="0.92"
  />
  <path
    d="M43.5 38.5L48.3125 46L53.1875 38.5H58.5L51.25 49L58.5 59.5H53.125L48.3125 52.0625L43.5625 59.5H38.1875L45.4375 49L38.1875 38.5H43.5Z"
    fill="#0F6A41"
  />
  <defs>
    <linearGradient id="paint0_linear" x1="14" y1="10" x2="84" y2="84" gradientUnits="userSpaceOnUse">
      <stop stop-color="#29BF73" />
      <stop offset="1" stop-color="#0F6A41" />
    </linearGradient>
  </defs>
</svg>
